# Blender 4.0.2
# www.blender.org
mtllib Tree3.mtl
o Cube
v -3.429863 -0.017568 0.675165
v -3.043911 0.982432 0.299871
v -3.365461 -0.017568 -1.004409
v -3.034210 0.982432 -0.223806
v -2.006313 -0.017568 0.707441
v -2.469493 0.982432 0.299871
v -2.254381 -0.017568 -0.481141
v -2.525985 0.982432 -0.226068
v -2.967782 4.986137 0.208155
v -2.967782 4.986137 -0.201307
v -2.558320 4.986137 -0.201307
v -2.558320 4.986137 0.208155
v -2.384420 0.982432 0.003424
v -2.402201 -0.017568 0.121665
v -2.642636 -0.017568 0.603721
v -2.763051 0.982432 0.443281
v -2.452129 4.986137 0.003424
v -3.518468 -0.017568 0.000000
v -3.174298 0.982432 0.003424
v -3.073973 4.986137 0.003424
v -2.763051 0.982432 -0.307498
v -2.763051 4.986137 0.314346
v -2.758368 -0.017568 -0.571541
v -2.763051 4.986137 -0.307498
v -2.762354 4.986137 0.000000
v -3.022319 1.804500 -0.239629
v -3.012679 2.590227 -0.173630
v -2.990351 3.361818 -0.214124
v -2.977820 4.174914 -0.221953
v -2.548620 4.172763 -0.218766
v -2.541453 3.357373 -0.207127
v -2.543975 2.591860 -0.177472
v -2.533935 1.809240 -0.248220
v -2.540910 4.195557 0.213658
v -2.526522 3.406563 0.247417
v -2.507503 2.575866 0.301504
v -2.481495 1.764889 0.252372
v -3.022853 1.759815 0.259894
v -3.015929 2.574144 0.304200
v -3.001878 3.411167 0.239054
v -2.983344 4.197749 0.209907
v -2.396222 1.790499 -0.026185
v -2.415381 2.584912 0.041352
v -2.424741 3.379462 0.008728
v -2.437098 4.183274 -0.008331
v -3.092520 4.186521 -0.013887
v -3.113669 3.386133 -0.003393
v -3.138032 2.582465 0.045183
v -3.152398 1.783411 -0.015678
v -2.765752 1.814773 -0.331154
v -2.768595 2.594171 -0.267581
v -2.757460 3.349050 -0.306840
v -2.758970 4.168465 -0.321695
v -2.764338 4.202659 0.325293
v -2.768773 3.422007 0.363763
v -2.764834 2.570673 0.431342
v -2.755291 1.750193 0.391784
vn -0.9104 0.3962 0.1195
vn 0.3400 0.3912 -0.8552
vn 0.9921 0.1254 0.0075
vn 0.0409 0.2840 0.9580
vn -0.0000 -1.0000 -0.0000
vn 0.4497 0.0211 -0.8930
vn -0.0000 1.0000 -0.0000
vn 0.4442 0.0583 0.8940
vn -0.8811 0.0268 -0.4722
vn -0.4635 0.0121 0.8860
vn 0.9581 0.0282 0.2851
vn 0.9362 0.1218 -0.3298
vn -0.0648 0.2662 0.9617
vn 0.8852 0.0219 -0.4647
vn -0.9090 0.0403 0.4147
vn -0.8165 0.2827 -0.5034
vn 0.2173 0.2732 -0.9371
vn -0.3147 -0.0209 -0.9490
vn -0.8734 0.2993 0.3842
vn -0.9032 0.4066 -0.1376
vn -0.4369 0.0208 -0.8993
vn -0.3923 -0.0101 -0.9198
vn -0.3648 -0.0406 -0.9302
vn -0.3483 0.0788 -0.9341
vn -0.8936 0.0148 0.4487
vn -0.9041 0.0332 0.4259
vn -0.9058 0.0504 0.4208
vn -0.9050 -0.0158 0.4251
vn 0.8503 -0.0064 -0.5262
vn 0.8559 0.0609 -0.5135
vn 0.8710 -0.0158 -0.4910
vn 0.8815 0.0023 -0.4721
vn 0.8973 0.0165 0.4411
vn 0.9137 0.0283 0.4054
vn 0.9319 0.0355 0.3610
vn 0.9497 0.0040 0.3130
vn -0.4469 0.0612 0.8925
vn -0.4473 -0.0465 0.8932
vn -0.4611 0.0723 0.8844
vn -0.4698 0.0449 0.8816
vn -0.8581 0.0068 -0.5135
vn -0.8665 0.0529 -0.4964
vn -0.8655 -0.0027 -0.5009
vn -0.8689 0.0125 -0.4949
vn 0.4536 0.0140 0.8911
vn 0.4410 0.0440 0.8964
vn 0.4421 0.0707 0.8942
vn 0.4530 -0.0385 0.8907
vn 0.3305 -0.0239 -0.9435
vn 0.3545 0.0830 -0.9314
vn 0.3958 -0.0451 -0.9172
vn 0.4295 -0.0124 -0.9030
vt 0.375000 0.000000
vt 0.625000 0.000000
vt 0.375000 0.125000
vt 0.375000 0.250000
vt 0.625000 0.250000
vt 0.625000 0.375000
vt 0.375000 0.375000
vt 0.375000 0.500000
vt 0.625000 0.500000
vt 0.625000 0.625000
vt 0.375000 0.625000
vt 0.375000 0.750000
vt 0.625000 0.750000
vt 0.625000 0.875000
vt 0.375000 0.875000
vt 0.125000 0.500000
vt 0.250000 0.500000
vt 0.250000 0.750000
vt 0.125000 0.750000
vt 0.125000 0.625000
vt 0.750000 0.500000
vt 0.750000 0.625000
vt 0.625000 0.125000
vt 0.625000 1.000000
vt 0.375000 1.000000
vt 0.750000 0.750000
vt 0.875000 0.625000
vt 0.875000 0.750000
vt 0.875000 0.500000
s 0
usemtl Wood
f 1/1/1 2/2/1 18/3/1
f 3/4/2 4/5/2 21/6/2 23/7/2
f 7/8/3 8/9/3 13/10/3 14/11/3
f 5/12/4 6/13/4 16/14/4 15/15/4
f 3/16/5 23/17/5 7/8/5 14/11/5 5/12/5 15/18/5 1/19/5 18/20/5
f 30/9/6 53/6/6 24/6/6 11/9/6
f 11/9/7 24/21/7 25/22/7 17/10/7
f 57/14/8 16/14/8 6/13/8 37/13/8
f 29/5/9 46/23/9 20/23/9 10/5/9
f 41/24/10 54/14/10 22/14/10 9/24/10
f 42/10/11 37/13/11 6/13/11 13/10/11
f 14/11/12 13/10/12 6/13/12 5/12/12
f 15/15/13 16/14/13 2/24/13 1/25/13
f 45/10/14 30/9/14 11/9/14 17/10/14
f 49/23/15 19/23/15 2/2/15 38/2/15
f 17/10/7 25/22/7 22/26/7 12/13/7
f 18/3/16 19/23/16 4/5/16
f 23/7/17 21/6/17 8/9/17 7/8/17
f 50/6/18 21/6/18 4/5/18 26/5/18
f 22/26/7 25/22/7 20/27/7 9/28/7
f 25/22/7 24/21/7 10/29/7 20/27/7
f 18/3/19 2/2/19 19/23/19
f 4/5/20 3/4/20 18/3/20
f 24/6/21 53/6/21 29/5/21 10/5/21
f 53/6/22 52/6/22 28/5/22 29/5/22
f 52/6/23 51/6/23 27/5/23 28/5/23
f 51/6/24 50/6/24 26/5/24 27/5/24
f 20/23/25 46/23/25 41/2/25 9/2/25
f 46/23/26 47/23/26 40/2/26 41/2/26
f 47/23/27 48/23/27 39/2/27 40/2/27
f 48/23/28 49/23/28 38/2/28 39/2/28
f 13/10/29 8/9/29 33/9/29 42/10/29
f 42/10/30 33/9/30 32/9/30 43/10/30
f 43/10/31 32/9/31 31/9/31 44/10/31
f 44/10/32 31/9/32 30/9/32 45/10/32
f 17/10/33 12/13/33 34/13/33 45/10/33
f 45/10/34 34/13/34 35/13/34 44/10/34
f 44/10/35 35/13/35 36/13/35 43/10/35
f 43/10/36 36/13/36 37/13/36 42/10/36
f 2/24/37 16/14/37 57/14/37 38/24/37
f 38/24/38 57/14/38 56/14/38 39/24/38
f 39/24/39 56/14/39 55/14/39 40/24/39
f 40/24/40 55/14/40 54/14/40 41/24/40
f 4/5/41 19/23/41 49/23/41 26/5/41
f 26/5/42 49/23/42 48/23/42 27/5/42
f 27/5/43 48/23/43 47/23/43 28/5/43
f 28/5/44 47/23/44 46/23/44 29/5/44
f 22/14/45 54/14/45 34/13/45 12/13/45
f 54/14/46 55/14/46 35/13/46 34/13/46
f 55/14/47 56/14/47 36/13/47 35/13/47
f 56/14/48 57/14/48 37/13/48 36/13/48
f 8/9/49 21/6/49 50/6/49 33/9/49
f 33/9/50 50/6/50 51/6/50 32/9/50
f 32/9/51 51/6/51 52/6/51 31/9/51
f 31/9/52 52/6/52 53/6/52 30/9/52
