# Blender 4.0.2
# www.blender.org
mtllib Tree2.mtl
o Cube.001
v -3.429863 -0.017568 4.061340
v -3.101253 0.982432 3.743884
v -3.365461 -0.017568 2.381766
v -3.089547 0.982432 3.111989
v -2.006313 -0.017568 4.093617
v -2.408132 0.982432 3.743884
v -2.254381 -0.017568 2.905035
v -2.476298 0.982432 3.109259
v -3.009393 4.986137 3.633215
v -3.009393 4.986137 3.139137
v -2.515315 4.986137 3.139137
v -2.515315 4.986137 3.633215
v -2.305478 0.982432 3.386176
v -2.402201 -0.017568 3.507841
v -2.642636 -0.017568 3.989897
v -2.762354 0.982432 3.916929
v -2.387180 4.986137 3.386176
v -3.518468 -0.017568 3.386176
v -3.258584 0.982432 3.386176
v -3.137528 4.986137 3.386176
v -2.762354 0.982432 3.011002
v -2.762354 4.986137 3.761350
v -2.758368 -0.017568 2.814635
v -2.762354 4.986137 3.011002
v -2.762354 4.986137 3.386176
v -3.025162 4.198473 3.133796
v -2.507639 3.544155 3.133259
v -2.491999 2.515562 3.657290
v -3.020024 3.668836 3.605543
v -2.371107 3.544155 3.386176
v -3.163862 3.835994 3.386176
v -2.762354 4.198473 3.011002
v -2.753002 3.668836 3.743447
v -2.506016 3.377568 3.132016
v -3.028497 4.031885 3.132667
v -2.367707 3.377568 3.386176
v -2.762354 4.031885 3.011002
v -1.652720 4.934032 2.969399
v -1.733413 5.026165 2.971911
v -1.809489 4.967388 2.783739
v -1.729791 4.874444 2.780283
v -2.436862 3.282996 3.259096
v -1.806806 5.037573 2.879140
v -1.655901 4.863441 2.873526
v -2.439373 3.638726 3.259717
v -2.892747 4.299405 3.072741
v -2.896436 3.930953 3.071492
v -3.423629 4.896236 2.241660
v -3.399834 4.979645 2.276473
v -3.285250 4.896438 2.153375
v -3.263323 4.980438 2.187936
v -3.317727 5.030757 2.253221
v -3.368291 4.845622 2.176501
vn -0.9308 0.3446 0.1221
vn 0.3117 0.3642 -0.8776
vn 0.9976 0.0635 -0.0261
vn 0.0681 0.2233 0.9724
vn -0.0000 -1.0000 -0.0000
vn 0.4506 0.0039 -0.8927
vn -0.0000 1.0000 -0.0000
vn 0.4845 0.0623 0.8726
vn -0.8879 0.0206 -0.4595
vn -0.4596 -0.0151 0.8880
vn 0.9196 0.0428 0.3906
vn 0.9522 0.0755 -0.2959
vn -0.0880 0.1997 0.9759
vn 0.8830 0.0098 -0.4693
vn -0.8811 0.0398 0.4713
vn -0.8311 0.2160 -0.5124
vn 0.2268 0.2158 -0.9497
vn -0.4112 -0.0000 -0.9115
vn -0.8905 0.2314 0.3917
vn -0.9233 0.3575 -0.1406
vn -0.4279 -0.0000 -0.9038
vn -0.8627 0.0073 0.5057
vn 0.3433 0.1025 0.9336
vn 0.8919 0.0118 0.4520
vn -0.8885 0.0209 -0.4583
vn 0.3981 0.0049 0.9173
vn 0.4412 0.0055 -0.8974
vn 0.3809 0.0059 -0.9246
vn -0.8699 0.0247 -0.4926
vn -0.4558 0.0592 0.8881
vn 0.8710 0.0226 -0.4908
vn 0.1629 -0.6447 -0.7469
vn 0.8859 0.0181 0.4636
vn 0.6647 0.5921 -0.4556
vn -0.3001 -0.0768 -0.9508
vn 0.9046 -0.4258 0.0219
vn -0.9065 0.4215 -0.0231
vn 0.8615 0.0183 -0.5074
vn 0.6234 -0.4659 -0.6280
vn -0.6332 0.4525 0.6279
vn 0.6661 0.5906 -0.4556
vn 0.8842 0.0080 -0.4670
vn -0.4484 0.0103 -0.8938
vn -0.2021 0.6774 0.7074
vn -0.3312 0.0087 -0.9435
vn -0.4863 0.4425 -0.7535
vn -0.4852 0.4466 -0.7518
vn 0.8529 -0.0026 -0.5221
vn -0.9017 0.0359 0.4308
vn 0.7047 0.6735 0.2232
vn -0.7124 -0.6388 -0.2905
vt 0.375000 0.000000
vt 0.625000 0.000000
vt 0.375000 0.125000
vt 0.375000 0.250000
vt 0.625000 0.250000
vt 0.625000 0.375000
vt 0.375000 0.375000
vt 0.375000 0.500000
vt 0.625000 0.500000
vt 0.625000 0.625000
vt 0.375000 0.625000
vt 0.375000 0.750000
vt 0.625000 0.750000
vt 0.625000 0.875000
vt 0.375000 0.875000
vt 0.125000 0.500000
vt 0.250000 0.500000
vt 0.250000 0.750000
vt 0.125000 0.750000
vt 0.125000 0.625000
vt 0.625000 0.375000
vt 0.750000 0.500000
vt 0.750000 0.625000
vt 0.625000 0.875000
vt 0.625000 0.750000
vt 0.625000 0.250000
vt 0.625000 0.125000
vt 0.625000 1.000000
vt 0.625000 0.875000
vt 0.375000 1.000000
vt 0.625000 0.562500
vt 0.750000 0.750000
vt 0.625000 0.312500
vt 0.875000 0.625000
vt 0.875000 0.750000
vt 0.875000 0.500000
vt 0.625000 0.312500
vt 0.625000 0.250000
vt 0.625000 0.500000
vt 0.625000 0.562500
s 0
usemtl Wood
f 1/1/1 2/2/1 18/3/1
f 3/4/2 4/5/2 21/6/2 23/7/2
f 7/8/3 8/9/3 13/10/3 14/11/3
f 5/12/4 6/13/4 16/14/4 15/15/4
f 3/16/5 23/17/5 7/8/5 14/11/5 5/12/5 15/18/5 1/19/5 18/20/5
f 27/9/6 32/21/6 24/6/6 11/9/6
f 11/9/7 24/22/7 25/23/7 17/10/7
f 33/24/8 16/14/8 6/13/8 28/25/8
f 26/26/9 31/27/9 20/27/9 10/5/9
f 29/28/10 33/29/10 22/14/10 9/28/10
f 36/10/11 28/25/11 6/13/11 13/10/11
f 14/11/12 13/10/12 6/13/12 5/12/12
f 15/15/13 16/14/13 2/28/13 1/30/13
f 30/10/14 45/31/14 17/10/14
f 31/27/15 19/27/15 2/2/15 29/2/15
f 17/10/7 25/23/7 22/32/7 12/13/7
f 18/3/16 19/27/16 4/5/16
f 23/7/17 21/6/17 8/9/17 7/8/17
f 37/21/18 21/6/18 47/33/18
f 22/32/7 25/23/7 20/34/7 9/35/7
f 25/23/7 24/22/7 10/36/7 20/34/7
f 18/3/19 2/2/19 19/27/19
f 4/5/20 3/4/20 18/3/20
f 24/6/21 32/21/21 46/37/21
f 20/27/22 31/27/22 29/2/22 9/2/22
f 30/10/23 36/10/23 38/10/23 39/10/23
f 17/10/24 12/13/24 28/25/24 30/10/24
f 35/38/25 31/27/25 26/26/25
f 22/14/26 33/29/26 28/25/26 12/13/26
f 34/39/27 37/21/27 32/21/27 27/9/27
f 8/9/28 21/6/28 37/21/28 34/39/28
f 4/5/29 19/27/29 31/27/29 35/38/29
f 2/28/30 16/14/30 33/24/30 29/28/30
f 13/10/31 42/31/31 36/10/31
f 37/21/32 47/33/32 53/33/32 50/21/32
f 30/10/33 28/25/33 36/10/33
f 38/10/34 44/40/34 43/31/34 39/10/34
f 34/39/35 27/9/35 40/9/35 41/39/35
f 36/10/36 42/31/36 44/40/36 38/10/36
f 27/9/37 45/31/37 43/31/37 40/9/37
f 42/31/38 13/10/38 8/9/38 34/39/38
f 44/40/39 42/31/39 34/39/39 41/39/39
f 43/31/40 45/31/40 30/10/40 39/10/40
f 43/31/41 44/40/41 41/39/41 40/9/41
f 17/10/42 45/31/42 27/9/42 11/9/42
f 46/37/43 26/26/43 10/5/43 24/6/43
f 26/26/44 46/37/44 52/37/44 49/26/44
f 47/33/45 21/6/45 4/5/45 35/38/45
f 51/21/46 50/21/46 53/33/46 52/37/46
f 52/37/47 53/33/47 48/38/47 49/26/47
f 32/21/48 37/21/48 50/21/48 51/21/48
f 35/38/49 26/26/49 49/26/49 48/38/49
f 46/37/50 32/21/50 51/21/50 52/37/50
f 47/33/51 35/38/51 48/38/51 53/33/51
