# Blender 4.0.2
# www.blender.org
mtllib Tree1.mtl
o Cube.002
v -3.429863 -0.017568 -2.312936
v -3.101253 0.982432 -2.630392
v -3.365461 -0.017568 -3.992510
v -3.089547 0.982432 -3.262287
v -2.006313 -0.017568 -2.280659
v -2.408132 0.982432 -2.630392
v -2.254381 -0.017568 -3.469241
v -2.476298 0.982432 -3.265017
v -3.009393 4.986137 -2.741061
v -3.009393 4.986137 -3.235139
v -2.515315 4.986137 -3.235139
v -2.515315 4.986137 -2.741061
v -2.305478 0.982432 -2.988100
v -2.402201 -0.017568 -2.866436
v -2.642636 -0.017568 -2.384380
v -2.762354 0.982432 -2.457347
v -2.387180 4.986137 -2.988100
v -3.518468 -0.017568 -2.988100
v -3.258584 0.982432 -2.988100
v -3.137528 4.986137 -2.988100
v -2.762354 0.982432 -3.363274
v -2.762354 4.986137 -2.612926
v -2.758368 -0.017568 -3.559641
v -2.762354 4.986137 -3.363274
v -2.762354 4.986137 -2.988100
v -3.116800 1.803876 -3.236010
v -3.011037 2.583251 -3.253854
v -3.082269 3.405026 -3.273699
v -2.989074 4.214663 -3.226891
v -2.473342 4.167421 -3.231594
v -2.542387 3.360267 -3.277409
v -2.448293 2.526654 -3.253924
v -2.530887 1.739718 -3.238032
v -2.456959 4.150887 -2.709748
v -2.511870 3.366163 -2.727315
v -2.403689 2.577474 -2.678030
v -2.473463 1.764703 -2.632298
v -3.122907 1.835693 -2.632475
v -3.014128 2.638698 -2.679723
v -3.083598 3.413546 -2.724542
v -2.988601 4.199601 -2.705462
v -2.368130 1.735893 -2.967403
v -2.293525 2.536461 -2.989736
v -2.396102 3.352109 -3.019155
v -2.335885 4.147542 -2.979789
v -3.123459 4.219707 -2.973440
v -3.224702 3.420779 -3.015136
v -3.161171 2.623482 -2.992143
v -3.275281 1.835052 -2.967650
v -2.808044 1.764642 -3.342203
v -2.718136 2.543182 -3.364378
v -2.804838 3.380239 -3.392309
v -2.727769 4.194252 -3.351653
v -2.723569 4.171369 -2.570536
v -2.799900 3.392271 -2.579834
v -2.712435 2.623265 -2.524512
v -2.803409 1.809225 -2.468541
v -3.035671 3.809844 -3.250295
v -2.507864 3.763844 -3.254502
v -2.484415 3.758525 -2.718532
v -3.036099 3.806573 -2.715002
v -2.365993 3.749825 -2.999472
v -3.174081 3.820243 -2.994288
v -2.766304 3.787245 -3.371981
v -2.761735 3.781820 -2.575185
v -2.350939 3.948684 -2.989630
v -2.490603 3.965633 -3.243048
v -1.714100 5.058424 -3.436706
v -2.404613 4.157482 -3.105691
v -2.436929 3.756835 -3.126987
v -2.044768 4.284487 -3.221393
v -2.084245 4.361104 -3.227586
v -2.126945 4.398983 -3.260285
v -2.166934 4.300259 -3.366043
v -2.128084 4.222434 -3.360639
v -2.084757 4.185762 -3.327150
v -2.054313 4.214199 -3.273245
v -2.156762 4.371754 -3.313402
v -1.743189 5.105578 -3.447702
v -1.769489 5.126509 -3.474522
v -1.778966 5.056487 -3.542598
v -1.750133 5.008483 -3.532123
v -1.723577 4.988401 -3.504782
v -1.711041 5.010491 -3.468202
v -1.781770 5.105268 -3.510582
v -1.746533 5.057455 -3.489652
v -3.046653 2.994139 -3.263777
v -2.495340 2.943460 -3.265666
v -2.457779 2.971818 -2.702672
v -3.048863 3.026122 -2.702133
v -2.344814 2.944285 -3.004445
v -3.192937 3.022130 -3.003639
v -2.761487 2.961710 -3.378344
v -2.756167 3.007768 -2.552173
v -2.778034 3.200019 -2.566003
v -2.484825 3.168991 -2.714994
v -2.655885 3.379217 -2.653574
v -2.606973 2.989793 -2.627423
v -2.449731 4.344762 -2.153242
v -2.573879 3.763889 -2.393146
v -2.466989 3.718678 -2.430056
v -2.382245 3.588275 -2.419407
v -2.402483 3.468389 -2.358517
v -2.686804 3.618785 -2.273654
v -2.605892 3.491435 -2.262674
v -2.495171 3.443172 -2.299916
v -2.662735 3.735619 -2.334876
v -2.432518 5.198119 -2.101957
v -2.350688 4.316534 -2.168817
v -2.259118 4.244003 -2.114867
v -2.268110 4.139381 -2.040961
v -2.532296 4.248087 -2.013110
v -2.447874 4.159346 -1.967986
v -2.346123 4.124084 -1.985226
v -2.524085 4.327409 -2.096926
v -2.385928 5.194515 -2.084213
v -2.354737 5.191862 -2.028413
v -2.371315 5.192712 -1.975129
v -2.493317 5.202023 -2.035711
v -2.463648 5.199359 -1.981232
v -2.415536 5.195765 -1.962166
v -2.475218 5.201184 -2.087674
v -2.424027 5.196942 -2.032062
v -3.058970 3.607435 -3.261997
v -3.199392 3.620512 -3.004712
v -3.153486 3.412903 -3.144417
v -3.104876 3.815044 -3.122291
v -3.395669 4.002596 -3.227058
v -3.268013 3.692909 -3.098680
v -3.297002 3.564522 -3.156779
v -3.267651 3.525681 -3.248549
v -3.216089 3.543345 -3.334042
v -3.147203 3.663960 -3.364484
v -3.119026 3.794330 -3.305359
v -3.147565 3.831187 -3.214616
v -3.198314 3.811541 -3.130150
v -3.463793 4.283217 -3.275054
v -3.431598 3.943274 -3.266594
v -3.422221 3.924158 -3.320159
v -3.392013 3.930918 -3.367135
v -3.336138 3.985629 -3.377632
v -3.300325 4.046059 -3.337390
v -3.309587 4.064067 -3.284531
v -3.339681 4.056200 -3.238261
v -3.467114 4.766264 -3.359940
v -3.513020 4.234345 -3.314567
v -3.510357 4.216202 -3.369215
v -3.481688 4.218815 -3.417549
v -3.416311 4.261413 -3.429244
v -3.366935 4.311359 -3.388981
v -3.369748 4.328428 -3.335083
v -3.398567 4.324741 -3.287498
v -3.402538 5.156944 -3.376808
v -3.521281 4.770042 -3.378396
v -3.535820 4.770375 -3.417167
v -3.526093 4.768992 -3.456370
v -3.473328 4.765210 -3.476725
v -3.418468 4.761783 -3.457726
v -3.404622 4.761098 -3.419498
v -3.415041 4.762131 -3.380838
v -3.442396 5.169050 -3.387231
v -3.455099 5.172748 -3.415271
v -3.450437 5.171250 -3.445133
v -3.413773 5.160457 -3.463582
v -3.373322 5.148479 -3.452791
v -3.361212 5.144652 -3.425119
v -3.366466 5.146022 -3.395626
v -3.408155 5.158700 -3.420195
v -2.292698 4.062653 -2.201011
v -2.593410 4.031514 -2.215901
v -2.384433 4.145387 -2.241765
v -2.511805 4.054325 -2.273194
v -2.335296 3.803885 -2.199739
v -2.420647 3.783628 -2.142571
v -2.526883 3.825390 -2.115330
v -2.609550 3.933436 -2.143382
v -2.220488 4.485559 -2.282152
v -2.179685 4.451317 -2.272645
v -2.195074 4.389161 -2.329454
v -2.235593 4.425794 -2.332372
v -2.193916 5.007005 -2.398399
v -2.175731 4.992364 -2.400167
v -2.183985 4.973553 -2.430989
v -2.201825 4.988357 -2.426209
vn -0.9308 0.3446 0.1221
vn 0.3117 0.3642 -0.8776
vn 0.9976 0.0635 -0.0261
vn 0.0681 0.2233 0.9724
vn -0.0000 -1.0000 -0.0000
vn 0.4441 0.0127 -0.8959
vn -0.0000 1.0000 -0.0000
vn 0.4433 0.0366 0.8956
vn -0.8854 -0.0267 -0.4641
vn -0.4556 0.0264 0.8898
vn 0.9559 0.0762 0.2838
vn 0.9522 0.0755 -0.2959
vn -0.0880 0.1997 0.9759
vn 0.8839 0.0474 -0.4653
vn -0.9127 -0.0249 0.4080
vn -0.8311 0.2160 -0.5124
vn 0.2268 0.2158 -0.9497
vn -0.3089 0.0140 -0.9510
vn -0.8905 0.2314 0.3917
vn -0.9233 0.3575 -0.1406
vn -0.4461 -0.0270 -0.8946
vn -0.4028 0.0990 -0.9099
vn -0.3689 -0.0618 -0.9274
vn -0.3367 0.0181 -0.9414
vn -0.8907 -0.0053 0.4546
vn -0.8912 0.0897 0.4447
vn -0.9014 -0.0577 0.4292
vn -0.8995 0.1446 0.4123
vn 0.8513 0.0824 -0.5181
vn 0.8563 -0.0970 -0.5073
vn 0.8655 0.0874 -0.4933
vn -0.3337 0.8118 0.4792
vn 0.8989 0.0691 0.4328
vn 0.9215 -0.0808 0.3800
vn 0.9356 0.1388 0.3248
vn 0.9440 -0.0709 0.3222
vn -0.4559 -0.0100 0.8900
vn -0.4481 0.1120 0.8869
vn -0.4548 0.0113 0.8905
vn -0.4510 0.0332 0.8919
vn -0.8563 -0.0081 -0.5164
vn -0.8531 0.1058 -0.5109
vn -0.8732 -0.0847 -0.4799
vn -0.8733 0.1301 -0.4696
vn 0.4628 0.0667 0.8840
vn 0.4537 -0.0539 0.8895
vn 0.4584 0.1155 0.8812
vn 0.4462 0.0119 0.8949
vn 0.3398 0.0514 -0.9391
vn 0.3605 -0.0623 -0.9307
vn 0.3963 0.0146 -0.9180
vn 0.4188 0.0090 -0.9080
vn 0.4082 0.0119 -0.9128
vn 0.4569 -0.0536 0.8879
vn -0.8589 0.2845 0.4258
vn -0.4518 0.0333 0.8915
vn 0.9084 -0.0890 0.4084
vn 0.8698 -0.0432 -0.4915
vn -0.8888 0.0928 0.4488
vn -0.4133 0.0921 -0.9059
vn -0.8663 0.4765 0.1500
vn 0.9151 -0.0783 0.3956
vn 0.4280 0.0147 -0.9037
vn 0.5381 -0.6351 -0.5542
vn 0.7671 -0.2091 0.6065
vn 0.8718 -0.0469 -0.4876
vn 0.8783 0.0430 -0.4761
vn -0.5308 0.8203 0.2129
vn -0.3625 0.4178 0.8331
vn 0.8842 -0.4313 -0.1792
vn -0.8519 0.3354 -0.4023
vn -0.3066 -0.0031 -0.9518
vn 0.6253 0.0451 0.7791
vn -0.4769 0.2458 -0.8439
vn 0.6814 -0.6667 -0.3021
vn 0.7880 0.3711 -0.4914
vn 0.7897 0.3710 -0.4886
vn 0.7906 0.3685 -0.4891
vn 0.7888 0.3686 -0.4918
vn 0.8917 -0.2925 0.3454
vn -0.0942 -0.1744 -0.9802
vn 0.1434 0.2137 0.9663
vn 0.4159 -0.3755 -0.8282
vn 0.3850 0.0133 -0.9228
vn 0.4097 -0.5736 0.7093
vn -0.8711 -0.0853 -0.4836
vn -0.4562 0.0113 0.8898
vn 0.9216 0.1488 0.3584
vn 0.8606 0.0865 -0.5018
vn -0.8996 -0.0574 0.4330
vn -0.3876 -0.0634 -0.9196
vn 0.9291 0.1357 0.3441
vn 0.1961 -0.5769 0.7929
vn -0.4536 0.0125 0.8911
vn 0.4568 0.1170 0.8818
vn 0.9786 -0.0261 -0.2041
vn 0.4515 -0.0515 0.8908
vn 0.8189 0.2430 -0.5200
vn 0.5730 -0.4427 0.6897
vn 0.0579 0.5621 0.8250
vn -0.6033 0.4132 -0.6821
vn -0.0448 0.3931 -0.9184
vn -0.7599 -0.1962 0.6198
vn -0.9526 0.0782 0.2940
vn -0.4241 0.5991 -0.6791
vn -0.1953 0.6129 -0.7657
vn -0.5203 0.0498 -0.8525
vn 0.0320 0.0785 -0.9964
vn -0.6478 0.0212 0.7615
vn -0.9853 0.0462 -0.1643
vn 0.9848 -0.1557 -0.0767
vn 0.0390 -0.4188 0.9073
vn -0.9762 0.2026 0.0778
vn -0.5798 -0.1985 0.7902
vn 0.0734 0.9973 0.0085
vn 0.0721 0.9974 0.0074
vn 0.0734 0.9973 0.0072
vn 0.0720 0.9974 0.0087
vn 0.7006 0.1162 -0.7041
vn 0.4897 0.0033 0.8719
vn 0.9637 0.0763 0.2560
vn -0.0135 -0.0052 0.9999
vn -0.7075 -0.6841 -0.1773
vn -0.3912 0.0878 -0.9161
vn -0.8933 0.0949 0.4393
vn -0.8693 0.1350 -0.4755
vn 0.6819 0.0498 -0.7297
vn 0.4708 -0.1844 -0.8627
vn -0.8748 -0.0873 -0.4766
vn 0.5035 0.2602 -0.8239
vn -0.1348 -0.1334 -0.9819
vn 0.6264 0.5885 0.5112
vn -0.7510 -0.3870 -0.5349
vn -0.8460 0.0288 0.5324
vn -0.5443 -0.7642 -0.3460
vn -0.0412 0.9982 0.0446
vn 0.1481 0.9814 -0.1225
vn -0.7880 -0.3307 -0.5193
vn 0.9707 0.2384 0.0315
vn 0.0466 0.1846 0.9817
vn -0.9597 -0.2808 -0.0101
vn -0.7642 -0.0692 0.6413
vn -0.9247 -0.3674 -0.0999
vn -0.1374 0.3315 0.9334
vn 0.8165 0.5773 -0.0056
vn 0.2119 0.1902 0.9586
vn -0.9914 -0.0174 0.1294
vn -0.5241 0.1172 0.8436
vn 0.5094 -0.0467 -0.8593
vn 0.7977 0.2784 0.5350
vn -0.0299 -0.1867 -0.9820
vn 0.6611 0.0364 -0.7494
vn -0.6501 -0.0427 0.7587
vn -0.2799 0.0820 0.9565
vn 0.2957 -0.0175 -0.9551
vn -0.3835 0.0931 -0.9188
vn 0.9678 -0.1100 0.2264
vn 0.9886 0.0739 -0.1315
vn -0.9117 -0.0892 -0.4011
vn 0.9000 0.1376 0.4137
vn -0.2293 -0.1013 -0.9681
vn 0.2847 0.9586 -0.0003
vn 0.2852 0.9585 0.0042
vn 0.2885 0.9575 -0.0009
vn 0.2890 0.9573 0.0036
vn -0.9063 0.1838 0.3806
vn 0.4075 -0.0222 0.9129
vn 0.9226 -0.1064 -0.3707
vn -0.9596 0.1899 -0.2078
vn -0.5219 -0.2263 0.8225
vn -0.9756 0.2137 0.0502
vn 0.0902 -0.4270 0.8997
vn 0.9844 -0.1704 -0.0431
vn -0.1015 0.4101 -0.9064
vn -0.5925 0.4143 -0.6909
vn 0.5432 0.2570 -0.7993
vn 0.5654 -0.4437 0.6953
vn -0.9764 0.0922 0.1953
vn -0.8578 0.3712 -0.3557
vn 0.9596 -0.2585 0.1116
vn 0.0031 -0.3406 -0.9402
vn 0.4583 0.6863 -0.5648
vn 0.0560 0.2217 0.9735
vn -0.1711 -0.1589 -0.9723
vn 0.9758 -0.0561 -0.2115
vt 0.375000 0.000000
vt 0.625000 0.000000
vt 0.375000 0.125000
vt 0.375000 0.250000
vt 0.625000 0.250000
vt 0.625000 0.375000
vt 0.375000 0.375000
vt 0.375000 0.500000
vt 0.625000 0.500000
vt 0.625000 0.625000
vt 0.375000 0.625000
vt 0.375000 0.750000
vt 0.625000 0.750000
vt 0.625000 0.875000
vt 0.375000 0.875000
vt 0.125000 0.500000
vt 0.250000 0.500000
vt 0.250000 0.750000
vt 0.125000 0.750000
vt 0.125000 0.625000
vt 0.750000 0.500000
vt 0.750000 0.625000
vt 0.625000 0.125000
vt 0.625000 1.000000
vt 0.375000 1.000000
vt 0.625000 0.562500
vt 0.750000 0.750000
vt 0.875000 0.625000
vt 0.875000 0.750000
vt 0.875000 0.500000
vt 0.625000 0.187500
vt 0.625000 0.187500
vt 0.625000 0.812500
vt 0.625000 0.562500
vt 0.625000 0.562500
s 0
usemtl Wood
f 1/1/1 2/2/1 18/3/1
f 3/4/2 4/5/2 21/6/2 23/7/2
f 7/8/3 8/9/3 13/10/3 14/11/3
f 5/12/4 6/13/4 16/14/4 15/15/4
f 3/16/5 23/17/5 7/8/5 14/11/5 5/12/5 15/18/5 1/19/5 18/20/5
f 30/9/6 53/6/6 24/6/6 11/9/6
f 11/9/7 24/21/7 25/22/7 17/10/7
f 57/14/8 16/14/8 6/13/8 37/13/8
f 29/5/9 46/23/9 20/23/9 10/5/9
f 41/24/10 54/14/10 22/14/10 9/24/10
f 42/10/11 37/13/11 6/13/11 13/10/11
f 14/11/12 13/10/12 6/13/12 5/12/12
f 15/15/13 16/14/13 2/24/13 1/25/13
f 45/10/14 69/26/14 11/9/14 17/10/14
f 49/23/15 19/23/15 2/2/15 38/2/15
f 17/10/7 25/22/7 22/27/7 12/13/7
f 18/3/16 19/23/16 4/5/16
f 23/7/17 21/6/17 8/9/17 7/8/17
f 50/6/18 21/6/18 4/5/18 26/5/18
f 22/27/7 25/22/7 20/28/7 9/29/7
f 25/22/7 24/21/7 10/30/7 20/28/7
f 18/3/19 2/2/19 19/23/19
f 4/5/20 3/4/20 18/3/20
f 24/6/21 53/6/21 29/5/21 10/5/21
f 64/6/22 124/5/22 58/5/22
f 93/6/23 51/6/23 27/5/23 87/5/23
f 51/6/24 50/6/24 26/5/24 27/5/24
f 20/23/25 46/23/25 41/2/25 9/2/25
f 63/23/26 125/23/26 61/2/26
f 92/23/27 48/23/27 39/2/27 90/2/27
f 48/23/28 49/23/28 38/2/28 39/2/28
f 13/10/29 8/9/29 33/9/29 42/10/29
f 42/10/30 33/9/30 32/9/30 43/10/30
f 91/10/31 88/9/31 31/9/31 44/10/31
f 69/26/32 45/10/32 72/10/32 73/26/32
f 17/10/33 12/13/33 34/13/33 45/10/33
f 62/10/34 60/13/34 35/13/34 44/10/34
f 91/10/35 89/13/35 36/13/35 43/10/35
f 43/10/36 36/13/36 37/13/36 42/10/36
f 2/24/37 16/14/37 57/14/37 38/24/37
f 38/24/38 57/14/38 56/14/38 39/24/38
f 90/24/39 94/14/39 95/14/39 40/24/39
f 61/24/40 65/14/40 54/14/40 41/24/40
f 4/5/41 19/23/41 49/23/41 26/5/41
f 26/5/42 49/23/42 48/23/42 27/5/42
f 87/5/43 92/23/43 47/23/43 126/31/43
f 58/5/44 127/32/44 46/23/44 29/5/44
f 22/14/45 54/14/45 34/13/45 12/13/45
f 65/14/46 55/14/46 97/33/46 60/13/46
f 94/14/47 56/14/47 98/33/47
f 56/14/48 57/14/48 37/13/48 36/13/48
f 8/9/49 21/6/49 50/6/49 33/9/49
f 33/9/50 50/6/50 51/6/50 32/9/50
f 88/9/51 93/6/51 52/6/51 31/9/51
f 59/9/52 64/6/52 53/6/52 67/9/52
f 31/9/53 52/6/53 64/6/53 59/9/53
f 54/14/54 65/14/54 60/13/54 34/13/54
f 125/23/55 63/23/55 136/23/55 129/23/55
f 40/24/56 55/14/56 65/14/56 61/24/56
f 45/10/57 34/13/57 66/10/57
f 44/10/58 31/9/58 70/34/58 62/10/58
f 46/23/59 63/23/59 61/2/59 41/2/59
f 53/6/60 64/6/60 58/5/60 29/5/60
f 78/9/61 73/26/61 80/26/61 85/9/61
f 66/10/62 34/13/62 60/13/62 62/10/62
f 67/9/63 53/6/63 30/9/63
f 70/34/64 59/9/64 75/9/64 76/34/64
f 66/10/65 62/10/65 77/10/65 71/10/65
f 70/34/66 31/9/66 59/9/66
f 11/9/67 69/26/67 30/9/67
f 30/9/68 69/26/68 73/26/68 78/9/68
f 73/26/69 72/10/69 79/10/69 80/26/69
f 77/10/70 76/34/70 83/34/70 84/10/70
f 74/9/71 78/9/71 85/9/71 81/9/71
f 59/9/72 67/9/72 74/9/72 75/9/72
f 45/10/73 66/10/73 71/10/73 72/10/73
f 67/9/74 30/9/74 78/9/74 74/9/74
f 62/10/75 70/34/75 76/34/75 77/10/75
f 84/10/76 83/34/76 86/35/76 68/10/76
f 68/10/77 86/35/77 80/26/77 79/10/77
f 80/26/78 86/35/78 81/9/78 85/9/78
f 86/35/79 83/34/79 82/9/79 81/9/79
f 71/10/80 77/10/80 84/10/80 68/10/80
f 75/9/81 74/9/81 81/9/81 82/9/81
f 72/10/82 71/10/82 68/10/82 79/10/82
f 76/34/83 75/9/83 82/9/83 83/34/83
f 32/9/84 51/6/84 93/6/84 88/9/84
f 98/33/85 89/13/85 103/13/85 106/33/85
f 27/5/86 48/23/86 92/23/86 87/5/86
f 39/24/87 56/14/87 94/14/87 90/24/87
f 44/10/88 35/13/88 96/13/88
f 43/10/89 32/9/89 88/9/89 91/10/89
f 47/23/90 92/23/90 90/2/90 40/2/90
f 52/6/91 93/6/91 87/5/91 28/5/91
f 96/13/92 89/13/92 91/10/92 44/10/92
f 94/14/93 98/33/93 106/33/93 105/14/93
f 40/24/94 95/14/94 55/14/94
f 98/33/95 56/14/95 36/13/95 89/13/95
f 89/13/96 96/13/96 102/13/96 103/13/96
f 60/13/97 97/33/97 35/13/97
f 96/13/98 35/13/98 101/13/98 102/13/98
f 174/33/99 173/13/99 111/13/99 114/33/99
f 109/13/100 110/13/100 178/13/100 177/13/100
f 172/33/101 170/14/101 115/14/101 99/33/101
f 171/13/102 172/33/102 99/33/102 109/13/102
f 95/14/103 94/14/103 105/14/103 104/14/103
f 55/14/104 95/14/104 104/14/104 107/14/104
f 97/33/105 55/14/105 107/14/105 100/33/105
f 35/13/106 97/33/106 100/33/106 101/13/106
f 99/33/107 115/14/107 122/14/107 108/33/107
f 109/13/108 99/33/108 108/33/108 116/13/108
f 112/14/109 113/14/109 120/14/109 119/14/109
f 115/14/110 112/14/110 119/14/110 122/14/110
f 173/13/111 169/13/111 110/13/111 111/13/111
f 175/14/112 174/33/112 114/33/112 113/14/112
f 170/14/113 176/14/113 112/14/113 115/14/113
f 176/14/114 175/14/114 113/14/114 112/14/114
f 122/14/115 119/14/115 123/33/115 108/33/115
f 117/13/116 123/33/116 121/33/116 118/13/116
f 108/33/117 123/33/117 117/13/117 116/13/117
f 121/33/118 123/33/118 119/14/118 120/14/118
f 110/13/119 109/13/119 116/13/119 117/13/119
f 114/33/120 111/13/120 118/13/120 121/33/120
f 111/13/121 110/13/121 117/13/121 118/13/121
f 113/14/122 114/33/122 121/33/122 120/14/122
f 126/31/123 47/23/123 130/23/123 131/31/123
f 124/5/124 64/6/124 52/6/124 28/5/124
f 61/2/125 125/23/125 47/23/125 40/2/125
f 46/23/126 127/32/126 63/23/126
f 58/5/127 124/5/127 133/5/127 134/5/127
f 124/5/128 28/5/128 132/5/128 133/5/128
f 126/31/129 28/5/129 87/5/129
f 134/5/130 133/5/130 141/5/130 142/5/130
f 133/5/131 132/5/131 140/5/131 141/5/131
f 136/23/132 135/32/132 143/32/132 144/23/132
f 132/5/133 131/31/133 139/31/133 140/5/133
f 47/23/134 125/23/134 129/23/134 130/23/134
f 28/5/135 126/31/135 131/31/135 132/5/135
f 63/23/136 127/32/136 135/32/136 136/23/136
f 127/32/137 58/5/137 134/5/137 135/32/137
f 140/5/138 139/31/138 147/31/138 148/5/138
f 143/32/139 142/5/139 150/5/139 151/32/139
f 128/23/140 144/23/140 152/23/140 137/23/140
f 139/31/141 138/23/141 146/23/141 147/31/141
f 130/23/142 129/23/142 128/23/142 138/23/142
f 131/31/143 130/23/143 138/23/143 139/31/143
f 129/23/144 136/23/144 144/23/144 128/23/144
f 135/32/145 134/5/145 142/5/145 143/32/145
f 137/23/146 152/23/146 160/23/146 145/23/146
f 147/31/147 146/23/147 154/23/147 155/31/147
f 146/23/148 137/23/148 145/23/148 154/23/148
f 150/5/149 149/5/149 157/5/149 158/5/149
f 144/23/150 143/32/150 151/32/150 152/23/150
f 141/5/151 140/5/151 148/5/151 149/5/151
f 142/5/152 141/5/152 149/5/152 150/5/152
f 138/23/153 128/23/153 137/23/153 146/23/153
f 154/23/154 145/23/154 153/23/154 161/23/154
f 158/5/155 157/5/155 164/5/155 165/5/155
f 157/5/156 156/5/156 163/5/156 164/5/156
f 160/23/157 159/32/157 166/32/157 167/23/157
f 151/32/158 150/5/158 158/5/158 159/32/158
f 148/5/159 147/31/159 155/31/159 156/5/159
f 152/23/160 151/32/160 159/32/160 160/23/160
f 149/5/161 148/5/161 156/5/161 157/5/161
f 163/5/162 162/31/162 168/31/162 164/5/162
f 164/5/163 168/31/163 166/32/163 165/5/163
f 168/31/164 162/31/164 161/23/164 153/23/164
f 166/32/165 168/31/165 153/23/165 167/23/165
f 155/31/166 154/23/166 161/23/166 162/31/166
f 145/23/167 160/23/167 167/23/167 153/23/167
f 159/32/168 158/5/168 165/5/168 166/32/168
f 156/5/169 155/31/169 162/31/169 163/5/169
f 104/14/170 105/14/170 175/14/170 176/14/170
f 107/14/171 104/14/171 176/14/171 170/14/171
f 105/14/172 106/33/172 174/33/172 175/14/172
f 103/13/173 102/13/173 169/13/173 173/13/173
f 101/13/174 100/33/174 172/33/174 171/13/174
f 100/33/175 107/14/175 170/14/175 172/33/175
f 102/13/176 101/13/176 171/13/176 169/13/176
f 106/33/177 103/13/177 173/13/177 174/33/177
f 180/13/178 177/13/178 181/13/178 184/13/178
f 171/13/179 109/13/179 177/13/179 180/13/179
f 110/13/180 169/13/180 179/13/180 178/13/180
f 169/13/181 171/13/181 180/13/181 179/13/181
f 183/13/182 184/13/182 181/13/182 182/13/182
f 177/13/183 178/13/183 182/13/183 181/13/183
f 179/13/184 180/13/184 184/13/184 183/13/184
f 178/13/185 179/13/185 183/13/185 182/13/185
